<svg xmlns="http://www.w3.org/2000/svg" viewBox="0 0 64 64" width="64" height="64" role="img" aria-label="SUNSCRYPT"><title>SUNSCRYPT</title><path d="M20 38a12 12 0 0 1 24 0z" fill="#D97A00"/><g transform="rotate(-60 32 38)"><path d="M32 9.5v11" stroke="#1F9D63" stroke-width="2" stroke-linecap="round"/><rect x="29.5" y="11.5" width="5" height="7" rx="1.5" fill="#1F9D63"/></g><g transform="rotate(-30 32 38)"><path d="M32 9.5v11" stroke="#D93F45" stroke-width="2" stroke-linecap="round"/><rect x="29.5" y="11.5" width="5" height="7" rx="1.5" fill="#D93F45"/></g><g transform="rotate(0 32 38)"><path d="M32 9.5v11" stroke="#1F9D63" stroke-width="2" stroke-linecap="round"/><rect x="29.5" y="11.5" width="5" height="7" rx="1.5" fill="#1F9D63"/></g><g transform="rotate(30 32 38)"><path d="M32 9.5v11" stroke="#D93F45" stroke-width="2" stroke-linecap="round"/><rect x="29.5" y="11.5" width="5" height="7" rx="1.5" fill="#D93F45"/></g><g transform="rotate(60 32 38)"><path d="M32 9.5v11" stroke="#1F9D63" stroke-width="2" stroke-linecap="round"/><rect x="29.5" y="11.5" width="5" height="7" rx="1.5" fill="#1F9D63"/></g><rect x="4" y="41.5" width="56" height="3.5" rx="1.75" fill="#D97A00"/><rect x="14" y="48.5" width="36" height="3" rx="1.5" fill="#D97A00" opacity=".55"/><rect x="24" y="55" width="16" height="3" rx="1.5" fill="#D97A00" opacity=".3"/></svg>
